<svg width="23" height="29" viewBox="0 0 23 29" fill="none" xmlns="http://www.w3.org/2000/svg">
<path fill-rule="evenodd" clip-rule="evenodd" d="M1.91261 19.8024L1.90843 19.8089L1.90424 19.8153C1.65621 20.1753 1.10022 20.2811 0.665468 19.9664C0.317108 19.7146 0.2126 19.1534 0.509404 18.71C0.951125 18.1324 1.27162 17.4573 1.48343 16.7971C1.7022 16.11 1.80391 15.3293 1.80113 14.5634C1.79695 13.7977 1.68686 13.018 1.45973 12.3333C1.24235 11.6756 0.914898 11.004 0.466209 10.4313C0.165226 9.99108 0.264156 9.4288 0.60973 9.17317C1.0403 8.85383 1.59768 8.95356 1.8485 9.31085L1.85408 9.31727L1.85826 9.32357C2.41564 10.0772 2.87268 10.9145 3.14579 11.736C3.43424 12.7024 3.61678 13.6372 3.62236 14.5536C3.62654 15.5177 3.53736 16.4304 3.19178 17.3289C2.81556 18.3073 2.45187 19.0571 1.91261 19.8024ZM5.94383 21.5921L5.95359 21.5763L5.96473 21.5599C7.19932 19.5304 7.91277 17.0814 7.89883 14.5301C7.88629 11.9796 7.14776 9.5391 5.89227 7.5235C5.62055 7.08098 5.74178 6.55777 6.20161 6.218C6.50957 5.98981 7.08785 6.07061 7.43064 6.54217C8.84916 8.84878 9.70613 11.6371 9.72006 14.5203C9.73539 17.5017 8.90908 20.1996 7.51424 22.523C7.19096 22.9786 6.69629 23.1061 6.27129 22.848C5.80867 22.501 5.72506 21.91 5.94383 21.5921ZM13.1758 3.51033L13.1883 3.53497L13.2023 3.55853C15.1238 6.77025 16.1912 10.4749 16.2121 14.4849C16.233 18.4929 15.2046 22.2073 13.3193 25.4389C13.0295 25.9156 12.5418 26.05 12.0457 25.8139C11.5956 25.5129 11.4744 25.014 11.7099 24.5101C13.3151 21.5891 14.3114 18.1471 14.2933 14.4953C14.2738 10.8596 13.3472 7.4231 11.6026 4.50194C11.3671 4.00315 11.4842 3.5064 11.9287 3.20194C12.4665 2.93891 12.9891 3.13171 13.1758 3.51033ZM18.8652 0.453791L18.8736 0.470627L18.8833 0.486962C21.2118 4.61343 22.5801 9.3312 22.6066 14.4499C22.6331 19.5633 21.3163 24.2913 19.0352 28.4399C18.7454 28.9111 18.2605 29.0431 17.7672 28.808C17.3185 28.508 17.1959 28.0113 17.4286 27.5091C19.626 23.664 20.8105 19.209 20.7854 14.4599C20.7603 9.69837 19.4268 5.26071 17.2962 1.45343C17.0287 0.897638 17.2168 0.353304 17.5902 0.159745C18.1365 -0.124362 18.6757 0.0684954 18.8652 0.453791Z" fill="white"/>
</svg>